<?xml version="1.0" encoding="utf-8"?>
<!-- Generator: Adobe Illustrator 16.0.0, SVG Export Plug-In . SVG Version: 6.00 Build 0)  -->
<!DOCTYPE svg PUBLIC "-//W3C//DTD SVG 1.1//EN" "http://www.w3.org/Graphics/SVG/1.1/DTD/svg11.dtd">
<svg version="1.1" id="Capa_1" xmlns="http://www.w3.org/2000/svg" xmlns:xlink="http://www.w3.org/1999/xlink" x="0px" y="0px"
	 width="841.891px" height="595.281px" viewBox="0 0 841.891 595.281" enable-background="new 0 0 841.891 595.281"
	 xml:space="preserve">
<g>
	<g>
		<polygon fill="#7D7D7D" points="644.176,260.435 644.176,186.025 606.97,186.025 606.97,260.435 532.56,260.435 532.56,297.64 
			606.97,297.64 606.97,372.051 644.176,372.051 644.176,297.64 718.586,297.64 718.586,260.435 		"/>
	</g>
</g>
<g>
	<g>
		<path fill="#7D7D7D" d="M309.33,260.435v74.41h105.253c-15.365,43.307-56.737,74.41-105.253,74.41
			c-61.537,0-111.615-50.078-111.615-111.615s50.078-111.615,111.615-111.615c26.676,0,52.348,9.562,72.289,26.937l48.888-56.105
			c-33.484-29.169-76.493-45.241-121.177-45.241c-102.574,0-186.025,83.451-186.025,186.025s83.451,186.025,186.025,186.025
			s186.025-83.451,186.025-186.025v-37.205H309.33z"/>
	</g>
</g>
</svg>
