<?xml version="1.0" encoding="utf-8"?>
<!-- Generator: Adobe Illustrator 16.0.0, SVG Export Plug-In . SVG Version: 6.00 Build 0)  -->
<!DOCTYPE svg PUBLIC "-//W3C//DTD SVG 1.1//EN" "http://www.w3.org/Graphics/SVG/1.1/DTD/svg11.dtd">
<svg version="1.1" id="Calque_1" xmlns="http://www.w3.org/2000/svg" xmlns:xlink="http://www.w3.org/1999/xlink" x="0px" y="0px"
	 width="1050.221px" height="750px" viewBox="0 0 1050.221 750" enable-background="new 0 0 1050.221 750" xml:space="preserve">
<g>
	<path fill-rule="evenodd" clip-rule="evenodd" fill="#FFFFFF" d="M525.143,150c-149.476,0-298.952,0.017-448.428-0.012
		c-37.326-0.007-67.366-24.11-75.103-60.082c-9.63-44.77,25.263-88.905,71.051-89.869c1.5-0.031,3-0.035,4.499-0.035
		C375.782,0,674.401-0.003,973.019,0.006c35.311,0.001,64.597,21.309,74.044,53.773c14.085,48.399-21.736,96.131-72.491,96.183
		C857.257,150.081,739.942,150,622.627,150C590.133,150,557.638,150,525.143,150z"/>
	<path fill-rule="evenodd" clip-rule="evenodd" fill="#FFFFFF" d="M524.548,450c-149.31,0-298.619,0.019-447.928-0.013
		C39.35,449.98,9.272,425.781,1.588,389.816c-9.569-44.786,25.365-88.855,71.171-89.779c1.499-0.03,2.999-0.035,4.499-0.035
		c298.619-0.001,597.238-0.006,895.857,0.005c34.179,0.002,62.613,19.904,73.046,51.02c16.477,49.145-19.732,98.924-72.184,98.949
		C824.167,450.046,674.358,450,524.548,450z"/>
	<path fill-rule="evenodd" clip-rule="evenodd" fill="#FFFFFF" d="M525.664,600c149.477,0,298.952-0.024,448.429,0.018
		c36.876,0.011,66.88,24.323,74.537,60.133c9.577,44.79-25.304,88.833-71.131,89.811c-1.666,0.035-3.333,0.037-4.999,0.037
		c-298.286,0.002-596.571,0.005-894.857-0.002c-34.379,0-62.755-19.551-73.439-50.532c-16.869-48.92,19.303-99.393,71.532-99.43
		C217.546,599.936,359.357,600,501.167,600C509.333,600,517.499,600,525.664,600z"/>
</g>
</svg>
