<?xml version="1.0" encoding="utf-8"?>
<!-- Generator: Adobe Illustrator 16.0.0, SVG Export Plug-In . SVG Version: 6.00 Build 0)  -->
<!DOCTYPE svg PUBLIC "-//W3C//DTD SVG 1.1//EN" "http://www.w3.org/Graphics/SVG/1.1/DTD/svg11.dtd">
<svg version="1.1" id="Capa_1" xmlns="http://www.w3.org/2000/svg" xmlns:xlink="http://www.w3.org/1999/xlink" x="0px" y="0px"
	 width="438.535px" height="438.535px" viewBox="0 0 438.535 438.535" enable-background="new 0 0 438.535 438.535"
	 xml:space="preserve">
<g>
	<path fill="#7D7D7D" d="M421.981,16.562C410.941,5.519,397.711,0,382.298,0H56.248C40.83,0,27.604,5.521,16.561,16.562
		C5.52,27.6,0.001,40.828,0.001,56.243v326.046c0,15.413,5.518,28.645,16.56,39.684c11.043,11.04,24.272,16.563,39.688,16.563
		h326.046c15.41,0,28.644-5.522,39.684-16.563c11.043-11.039,16.557-24.271,16.557-39.683V56.243
		C438.533,40.825,433.021,27.604,421.981,16.562z M157.462,158.025c17.224-16.651,37.924-24.981,62.097-24.981
		c24.36,0,45.153,8.33,62.381,24.981c17.229,16.655,25.837,36.785,25.837,60.387c0,23.598-8.608,43.729-25.837,60.379
		c-17.228,16.659-38.014,24.987-62.381,24.987c-24.172,0-44.87-8.336-62.097-24.987c-17.229-16.652-25.841-36.781-25.841-60.379
		C131.621,194.81,140.234,174.681,157.462,158.025z M388.865,370.589c0,4.944-1.718,9.083-5.141,12.416
		c-3.433,3.33-7.519,4.996-12.282,4.996H66.242c-4.948,0-9.092-1.666-12.42-4.996c-3.333-3.326-4.997-7.472-4.997-12.416V185.575
		H89.08c-3.806,11.992-5.708,24.462-5.708,37.401c0,36.553,13.321,67.715,39.969,93.511c26.65,25.786,58.721,38.686,96.217,38.686
		c24.744,0,47.583-5.903,68.527-17.703c20.937-11.808,37.485-27.839,49.676-48.112c12.183-20.271,18.274-42.399,18.274-66.38
		c0-12.939-1.91-25.406-5.716-37.401h38.548V370.59L388.865,370.589L388.865,370.589z M388.865,115.626
		c0,5.52-1.902,10.184-5.716,13.99c-3.805,3.809-8.466,5.711-13.988,5.711h-49.677c-5.517,0-10.185-1.903-13.989-5.711
		c-3.807-3.807-5.708-8.471-5.708-13.99V68.522c0-5.33,1.901-9.944,5.708-13.848c3.806-3.901,8.474-5.854,13.989-5.854h49.677
		c5.522,0,10.185,1.952,13.988,5.854c3.813,3.903,5.716,8.518,5.716,13.848V115.626z"/>
</g>
</svg>
