<?xml version="1.0" encoding="utf-8"?>
<!-- Generator: Adobe Illustrator 16.0.0, SVG Export Plug-In . SVG Version: 6.00 Build 0)  -->
<!DOCTYPE svg PUBLIC "-//W3C//DTD SVG 1.1//EN" "http://www.w3.org/Graphics/SVG/1.1/DTD/svg11.dtd">
<svg version="1.1" id="Calque_1" xmlns="http://www.w3.org/2000/svg" xmlns:xlink="http://www.w3.org/1999/xlink" x="0px" y="0px"
	 width="841.891px" height="595.281px" viewBox="0 0 841.891 595.281" enable-background="new 0 0 841.891 595.281"
	 xml:space="preserve">
<path fill="#7D7D7D" d="M345.385,494.848c-25.742,0-52.237-2.085-78.893-6.263c-46.946-7.367-94.471-31.924-107.918-39.276
	l-35.271-19.284l38.187-12.557c41.741-13.726,67.134-22.241,98.566-35.575c-31.474-15.241-55.73-42.659-67.407-78.103l-8.883-26.968
	l7.284,1.112c-6.907-6.962-12.362-14.029-16.59-20.455c-15.037-22.84-22.999-50.748-21.305-74.665l1.671-23.539l14.093,5.459
	c-5.945-11.227-10.241-23.217-12.767-35.783c-6.154-30.647-1.004-63.206,14.506-91.678l12.276-22.535l16.418,19.72
	c51.924,62.375,117.691,99.375,195.749,110.207c-3.188-21.977-0.8-43.187,7.107-62.197c9.206-22.136,25.583-40.906,47.347-54.286
	c24.17-14.855,53.482-22.055,82.535-20.27c30.823,1.894,58.81,13.443,81.036,33.422c10.854-2.82,18.853-5.831,29.661-9.9
	c6.504-2.448,13.879-5.228,23.107-8.407l34.008-11.717l-22.177,63.337c1.463-0.122,2.971-0.227,4.547-0.295l36.314-1.644
	l-21.464,29.334c-1.23,1.681-1.544,2.157-1.98,2.815c-1.729,2.607-3.883,5.85-33.344,45.189
	c-7.376,9.851-11.06,22.681-10.373,36.133c2.611,51.121-3.661,97.373-18.653,137.467c-14.179,37.932-36.151,70.477-65.299,96.732
	c-36.07,32.481-82.063,54.722-136.708,66.094C403.963,492.051,375.177,494.848,345.385,494.848z"/>
</svg>
